<svg width="128" height="100" viewBox="0 0 128 100" fill="none" xmlns="http://www.w3.org/2000/svg">
<path d="M127.999 91.8534H21.9426V99.5078H127.999V91.8534Z" fill="#1E1E3D"/>
<path d="M128 0H120.686V91.8534H128V0Z" fill="#1E1E3D"/>
<path d="M120.685 0H21.9426V7.65447H120.685V0Z" fill="#1E1E3D"/>
<path d="M29.2569 7.65457H7.31409V15.309H29.2569V7.65457Z" fill="#1E1E3D"/>
<path d="M14.6284 15.3092H7.31409V42.0998H14.6284V15.3092Z" fill="#1E1E3D"/>
<path d="M7.31426 34.4449H0V61.2355H7.31426V34.4449Z" fill="#1E1E3D"/>
<path d="M14.6284 53.5813H7.31409V91.8535H14.6284V53.5813Z" fill="#1E1E3D"/>
<path d="M29.2572 84.1988H14.6287V91.8533H29.2572V84.1988Z" fill="#1E1E3D"/>
<path d="M62.172 26.7903H43.8864V45.9264H62.172V26.7903Z" fill="#1E1E3D"/>
<path d="M106.056 26.7903H87.7708V45.9264H106.056V26.7903Z" fill="#1E1E3D"/>
<path d="M62.1707 57.4086H58.5135V68.8903H62.1707V57.4086Z" fill="#1E1E3D"/>
<path d="M87.7711 57.4086H84.114V68.8903H87.7711V57.4086Z" fill="#1E1E3D"/>
<path d="M84.1141 65.0631H62.1713V68.8904H84.1141V65.0631Z" fill="#1E1E3D"/>
<path d="M120.685 88.0261H29.2567V91.8534H120.685V88.0261Z" fill="#1E1E3D"/>
<path d="M120.685 7.65457H29.2567V11.4818H120.685V7.65457Z" fill="#1E1E3D"/>
<path d="M120.686 11.4819H117.028V88.0265H120.686V11.4819Z" fill="#1E1E3D"/>
<path d="M32.9138 11.4819H29.2567V88.0265H32.9138V11.4819Z" fill="#1E1E3D"/>
<path d="M29.2572 15.3092H14.6287V84.1993H29.2572V15.3092Z" fill="#1E1E3D"/>
<path d="M14.6284 42.0994H7.31409V53.5811H14.6284V42.0994Z" fill="#1E1E3D"/>
</svg>
