<svg width="51" height="40" viewBox="0 0 51 40" xmlns="http://www.w3.org/2000/svg">
<path d="M51 36H8V40H51V36Z" />
<path d="M51 0H47V40H51V0Z" />
<path d="M51 0H8V4H51V0Z" />
<path d="M10.7607 33.8461H4.88037V36.923H10.7607V33.8461Z" />
<path d="M24 11H17V18H24V11Z" />
<path d="M42 11H35V18H42V11Z" />
<path d="M24 23H22V28H24V23Z" />
<path d="M35 23H33V28H35V23Z" />
<path d="M33 26H24V28H33V26Z" />
<path d="M10.7607 6.15396H4.88037V33.8463H10.7607V6.15396Z" />
<path d="M4.88024 16.923H1.94006V21.5384H4.88024V16.923Z" />
<path d="M12 3H3V37H12V3Z" />
<path d="M3 14H0V25H3V14Z" />
</svg>
